# Blender v2.91.0 OBJ File: ''
# www.blender.org
mtllib strand.mtl
o Plane_Plane.001
v -29.112106 0.500513 29.222433
v 30.035917 0.617715 31.941248
v -28.088358 0.143547 -28.069191
v 26.188345 -2.506408 -30.104948
v -30.962292 -0.079896 -1.167694
v -1.473289 1.225669 30.229954
v 28.352510 -0.360913 -0.318586
v -0.251986 0.433504 -29.676937
v 0.000000 0.000000 0.000000
v -29.023342 1.091393 15.226377
v 14.707195 0.300886 29.041843
v 30.133499 0.229009 -12.116983
v -14.542905 0.243845 -29.395342
v -29.510817 0.362728 -14.772032
v -14.409530 0.427795 29.788977
v 29.035439 0.176454 13.704778
v 14.920573 -0.421823 -28.077566
v 0.112757 0.141755 -12.997325
v 1.053948 0.742213 15.217685
v -16.000132 0.994098 -0.534918
v 13.544147 0.516144 1.311481
v 15.568761 1.372026 13.712763
v -16.573322 0.124107 14.109782
v -14.906940 2.088311 -15.157052
v 15.420604 0.938646 -14.532497
v -27.576639 0.893715 24.265285
v 21.954895 0.590840 29.676735
v 29.546907 0.464037 -22.086552
v -23.756090 1.027156 -28.676760
v -29.767761 1.230534 -7.236218
v -6.262218 0.709729 30.048018
v 29.458637 0.535330 7.437949
v 6.276909 0.507273 -28.198349
v 0.965912 0.410290 -22.527388
v 0.000000 0.000000 7.367657
v -20.628662 1.329303 -1.399037
v 7.367657 0.000000 0.000000
v -29.652384 0.120961 7.799301
v 7.693480 0.614216 28.572737
v 29.645330 0.399301 -7.073592
v -8.855938 0.117075 -29.208601
v -29.604383 0.054797 -21.064880
v -22.106903 0.386682 29.470062
v 31.109488 1.052682 20.406809
v 22.127398 0.386367 -29.434570
v 0.000000 0.000000 -7.367657
v 0.889166 -0.123715 23.233341
v -7.367657 0.000000 0.000000
v 23.986990 1.326548 -1.338365
v 16.509319 1.102819 8.519705
v 15.781181 1.722773 22.438055
v 5.872449 0.742479 13.871225
v 21.163191 1.826115 15.450984
v -14.683738 1.567735 7.330957
v -12.843551 1.550735 22.350964
v -21.145117 1.651284 16.252531
v -7.686206 1.795258 14.141284
v -13.599722 0.232930 -20.906187
v -12.965915 0.666074 -7.143333
v -22.099794 0.962378 -17.418474
v -7.526566 1.579399 -12.926672
v 14.817859 0.636015 -21.723728
v 13.371690 0.699463 -7.867661
v 7.279904 0.433367 -14.777432
v 21.661119 -0.199823 -13.868470
v 22.075016 0.593240 -5.893338
v 7.367657 0.000000 -7.367657
v 9.071609 1.014328 -23.000511
v -7.367972 0.020746 -7.367342
v -20.572498 1.037628 -7.367704
v -21.222626 0.260807 -22.327005
v -5.394612 0.988129 23.033810
v -23.351879 0.827717 21.157110
v -22.070354 0.790881 6.793920
v 23.053457 0.507540 20.648268
v 7.701578 2.163349 21.231201
v 7.367656 0.000033 7.367656
v 23.468281 0.971323 5.705310
v -7.361674 0.148365 7.370036
v -6.231057 -0.035049 -23.229809
v 22.146273 -0.537499 -20.539501
vt 0.875000 0.875000
vt 1.000000 0.875000
vt 1.000000 1.000000
vt 0.875000 1.000000
vt 0.375000 0.875000
vt 0.500000 0.875000
vt 0.500000 1.000000
vt 0.375000 1.000000
vt 0.375000 0.375000
vt 0.500000 0.375000
vt 0.500000 0.500000
vt 0.375000 0.500000
vt 0.875000 0.375000
vt 1.000000 0.375000
vt 1.000000 0.500000
vt 0.875000 0.500000
vt 0.625000 0.375000
vt 0.750000 0.375000
vt 0.750000 0.500000
vt 0.625000 0.500000
vt 0.625000 0.125000
vt 0.750000 0.125000
vt 0.750000 0.250000
vt 0.625000 0.250000
vt 0.875000 0.125000
vt 1.000000 0.125000
vt 1.000000 0.250000
vt 0.875000 0.250000
vt 0.125000 0.375000
vt 0.250000 0.375000
vt 0.250000 0.500000
vt 0.125000 0.500000
vt 0.125000 0.125000
vt 0.250000 0.125000
vt 0.250000 0.250000
vt 0.125000 0.250000
vt 0.375000 0.125000
vt 0.500000 0.125000
vt 0.500000 0.250000
vt 0.375000 0.250000
vt 0.125000 0.875000
vt 0.250000 0.875000
vt 0.250000 1.000000
vt 0.125000 1.000000
vt 0.125000 0.625000
vt 0.250000 0.625000
vt 0.250000 0.750000
vt 0.125000 0.750000
vt 0.375000 0.625000
vt 0.500000 0.625000
vt 0.500000 0.750000
vt 0.375000 0.750000
vt 0.625000 0.875000
vt 0.750000 0.875000
vt 0.750000 1.000000
vt 0.625000 1.000000
vt 0.625000 0.625000
vt 0.750000 0.625000
vt 0.750000 0.750000
vt 0.625000 0.750000
vt 0.875000 0.625000
vt 1.000000 0.625000
vt 1.000000 0.750000
vt 0.875000 0.750000
vt 0.000000 0.625000
vt 0.000000 0.750000
vt 0.000000 0.500000
vt 0.000000 0.875000
vt 0.000000 1.000000
vt 0.250000 0.000000
vt 0.375000 0.000000
vt 0.500000 0.000000
vt 0.000000 0.125000
vt 0.000000 0.250000
vt 0.000000 0.000000
vt 0.125000 0.000000
vt 0.000000 0.375000
vt 0.750000 0.000000
vt 0.875000 0.000000
vt 1.000000 0.000000
vt 0.625000 0.000000
vn 0.1336 0.9803 -0.1453
vn -0.0485 0.9984 0.0275
vn 0.0101 0.9999 -0.0101
vn 0.2119 0.9763 -0.0441
vn -0.1020 0.9946 -0.0193
vn -0.0041 0.9940 -0.1090
vn 0.0708 0.9974 0.0135
vn -0.0364 0.9993 -0.0025
vn 0.0499 0.9974 -0.0515
vn 0.1354 0.9875 0.0807
vn 0.0464 0.9981 0.0414
vn -0.0652 0.9941 0.0866
vn 0.0963 0.9841 0.1492
vn 0.1045 0.9820 -0.1574
vn -0.0842 0.9958 0.0359
vn -0.0120 0.9972 -0.0739
vn 0.0879 0.9957 -0.0279
vn -0.0379 0.9987 -0.0342
vn 0.1556 0.9878 -0.0062
vn -0.0146 0.9989 0.0440
vn -0.0000 1.0000 -0.0000
vn -0.1001 0.9949 0.0121
vn -0.0446 0.9987 -0.0247
vn -0.0526 0.9978 0.0399
vn -0.0110 0.9998 0.0172
vn 0.0550 0.9770 0.2061
vn 0.1144 0.9934 0.0030
vn 0.0014 1.0000 0.0014
vn -0.0330 0.9981 -0.0511
vn -0.0605 0.9951 0.0779
vn 0.0607 0.9976 -0.0342
vn -0.0750 0.9948 0.0694
vn -0.0741 0.9928 -0.0947
vn -0.0134 0.9717 -0.2359
vn -0.0672 0.9977 -0.0125
vn 0.0120 0.9951 0.0985
vn 0.0558 0.9964 -0.0633
vn -0.0284 0.9970 0.0715
vn 0.0321 0.9975 0.0634
vn -0.0498 0.9940 0.0977
vn -0.1140 0.9933 0.0187
vn -0.0788 0.9918 -0.1003
vn 0.0679 0.9969 0.0398
vn 0.0592 0.9964 0.0603
vn 0.0708 0.9930 0.0949
vn -0.0371 0.9992 0.0132
vn -0.1968 0.9803 -0.0141
vn -0.1051 0.9945 -0.0035
vn 0.0255 0.9773 0.2102
vn -0.0114 0.9946 -0.1032
vn -0.0857 0.9909 -0.1035
vn -0.0418 0.9991 -0.0090
vn -0.0326 0.9961 -0.0820
vn 0.1488 0.9889 -0.0053
vn 0.1514 0.9867 -0.0599
vn -0.0155 0.9997 -0.0175
vn 0.0843 0.9827 -0.1648
vn 0.0308 0.9995 0.0037
vn 0.0502 0.9778 -0.2032
vn 0.0692 0.9958 -0.0601
vn 0.0250 0.9996 -0.0086
vn 0.1740 0.9836 -0.0469
vn -0.0897 0.9960 -0.0056
usemtl Material.002
s off
f 81/1/1 28/2/1 4/3/1 45/4/1
f 80/5/2 34/6/2 8/7/2 41/8/2
f 79/9/3 35/10/3 9/11/3 48/12/3
f 78/13/4 32/14/4 7/15/4 49/16/4
f 77/17/5 50/18/5 21/19/5 37/20/5
f 76/21/6 51/22/6 22/23/6 52/24/6
f 75/25/7 44/26/7 16/27/7 53/28/7
f 74/29/8 54/30/8 20/31/8 36/32/8
f 73/33/9 55/34/9 23/35/9 56/36/9
f 72/37/10 47/38/10 19/39/10 57/40/10
f 71/41/11 58/42/11 13/43/11 29/44/11
f 70/45/12 59/46/12 24/47/12 60/48/12
f 69/49/13 46/50/13 18/51/13 61/52/13
f 68/53/14 62/54/14 17/55/14 33/56/14
f 67/57/15 63/58/15 25/59/15 64/60/15
f 66/61/16 40/62/16 12/63/16 65/64/16
f 63/58/17 66/61/17 65/64/17 25/59/17
f 21/19/18 49/16/18 66/61/18 63/58/18
f 49/16/19 7/15/19 40/62/19 66/61/19
f 46/50/20 67/57/20 64/60/20 18/51/20
f 9/11/21 37/20/21 67/57/21 46/50/21
f 37/20/22 21/19/22 63/58/22 67/57/22
f 34/6/23 68/53/23 33/56/23 8/7/23
f 18/51/24 64/60/24 68/53/24 34/6/24
f 64/60/25 25/59/25 62/54/25 68/53/25
f 59/46/26 69/49/26 61/52/26 24/47/26
f 20/31/27 48/12/27 69/49/27 59/46/27
f 48/12/28 9/11/28 46/50/28 69/49/28
f 30/65/29 70/45/29 60/48/29 14/66/29
f 5/67/30 36/32/30 70/45/30 30/65/30
f 36/32/31 20/31/31 59/46/31 70/45/31
f 42/68/32 71/41/32 29/44/32 3/69/32
f 14/66/33 60/48/33 71/41/33 42/68/33
f 60/48/34 24/47/34 58/42/34 71/41/34
f 55/34/35 72/37/35 57/40/35 23/35/35
f 15/70/36 31/71/36 72/37/36 55/34/36
f 31/71/37 6/72/37 47/38/37 72/37/37
f 26/73/38 73/33/38 56/36/38 10/74/38
f 1/75/39 43/76/39 73/33/39 26/73/39
f 43/76/40 15/70/40 55/34/40 73/33/40
f 38/77/41 74/29/41 36/32/41 5/67/41
f 10/74/42 56/36/42 74/29/42 38/77/42
f 56/36/43 23/35/43 54/30/43 74/29/43
f 51/22/44 75/25/44 53/28/44 22/23/44
f 11/78/45 27/79/45 75/25/45 51/22/45
f 27/79/46 2/80/46 44/26/46 75/25/46
f 47/38/47 76/21/47 52/24/47 19/39/47
f 6/72/48 39/81/48 76/21/48 47/38/48
f 39/81/49 11/78/49 51/22/49 76/21/49
f 35/10/21 77/17/21 37/20/21 9/11/21
f 19/39/50 52/24/50 77/17/50 35/10/50
f 52/24/51 22/23/51 50/18/51 77/17/51
f 50/18/52 78/13/52 49/16/52 21/19/52
f 22/23/53 53/28/53 78/13/53 50/18/53
f 53/28/54 16/27/54 32/14/54 78/13/54
f 54/30/55 79/9/55 48/12/55 20/31/55
f 23/35/56 57/40/56 79/9/56 54/30/56
f 57/40/57 19/39/57 35/10/57 79/9/57
f 58/42/58 80/5/58 41/8/58 13/43/58
f 24/47/59 61/52/59 80/5/59 58/42/59
f 61/52/60 18/51/60 34/6/60 80/5/60
f 62/54/61 81/1/61 45/4/61 17/55/61
f 25/59/62 65/64/62 81/1/62 62/54/62
f 65/64/63 12/63/63 28/2/63 81/1/63
o Circle
v 0.000000 0.000000 -5.551662
v -1.083076 0.000000 -5.444988
v -2.124529 0.000000 -5.129067
v -3.084338 0.000000 -4.616038
v -3.925618 0.000000 -3.925618
v -4.616038 0.000000 -3.084338
v -5.129067 0.000000 -2.124529
v -5.444988 0.000000 -1.083076
v -5.551662 0.000000 -0.000000
v -5.444989 0.000000 1.083075
v -5.129067 0.000000 2.124528
v -4.616038 0.000000 3.084338
v -3.925618 0.000000 3.925618
v -3.084338 0.000000 4.616038
v -2.124528 0.000000 5.129067
v -1.083074 0.000000 5.444989
v 0.000002 0.000000 5.551662
v 1.083078 0.000000 5.444988
v 2.124532 0.000000 5.129066
v 3.084341 0.000000 4.616036
v 3.925620 0.000000 3.925616
v 4.616040 0.000000 3.084335
v 5.129069 0.000000 2.124525
v 5.444989 0.000000 1.083071
v 5.551662 0.000000 -0.000005
v 5.444987 0.000000 -1.083081
v 5.129065 0.000000 -2.124535
v 4.616035 0.000000 -3.084344
v 3.925613 0.000000 -3.925623
v 3.084332 0.000000 -4.616043
v 2.124521 0.000000 -5.129070
v 1.083067 0.000000 -5.444990
l 83 82
l 84 83
l 85 84
l 86 85
l 87 86
l 88 87
l 89 88
l 90 89
l 91 90
l 92 91
l 93 92
l 94 93
l 95 94
l 96 95
l 97 96
l 98 97
l 99 98
l 100 99
l 101 100
l 102 101
l 103 102
l 104 103
l 105 104
l 106 105
l 107 106
l 108 107
l 109 108
l 110 109
l 111 110
l 112 111
l 113 112
l 82 113
